<svg width="98" height="98" viewBox="0 0 98 98" fill="none" xmlns="http://www.w3.org/2000/svg">
<path d="M49 77.5833C49.8967 77.5834 50.7605 77.9206 51.4202 78.528C52.0798 79.1354 52.4869 79.9686 52.5606 80.8623L52.5729 81.1563V88.3021C52.5725 89.2239 52.2158 90.1099 51.5774 90.7749C50.9389 91.4399 50.0682 91.8324 49.1471 91.8704C48.226 91.9083 47.326 91.5888 46.635 90.9786C45.944 90.3684 45.5156 89.5148 45.4393 88.5961L45.4271 88.3021V81.1563C45.4271 79.182 47.0277 77.5833 49 77.5833ZM73.206 68.1713L73.4612 68.3999L78.5654 73.453C79.2176 74.0988 79.5963 74.9707 79.6231 75.8881C79.6498 76.8055 79.3225 77.698 78.7089 78.3806C78.0954 79.0632 77.2427 79.4835 76.3276 79.5544C75.4126 79.6253 74.5053 79.3413 73.794 78.7614L73.5388 78.5307L68.4346 73.4796C67.7824 72.8339 67.4036 71.9619 67.3769 71.0445C67.3502 70.1271 67.6775 69.2346 68.2911 68.552C68.9046 67.8694 69.7573 67.4491 70.6723 67.3782C71.5874 67.3074 72.4946 67.5913 73.206 68.1713ZM29.549 68.406C30.1774 69.0336 30.5496 69.8726 30.5931 70.7597C30.6365 71.6467 30.348 72.5181 29.7838 73.204L29.5531 73.4592L24.5041 78.5164C23.8555 79.1655 22.9821 79.5403 22.0648 79.5629C21.1474 79.5856 20.2565 79.2545 19.5767 78.6382C18.8969 78.0219 18.4802 77.1676 18.4131 76.2525C18.346 75.3373 18.6335 74.4315 19.2161 73.7225L19.4469 73.4673L24.4959 68.4101C24.8274 68.078 25.2211 67.8145 25.6545 67.6346C26.0878 67.4547 26.5524 67.3619 27.0216 67.3615C27.4908 67.3611 27.9556 67.4531 28.3892 67.6324C28.8229 67.8116 29.217 68.0745 29.549 68.406V68.406ZM49 26.707C61.3112 26.707 71.295 36.6867 71.295 49C71.295 61.3113 61.3112 71.295 49 71.295C36.6887 71.295 26.705 61.3113 26.705 49C26.705 36.6888 36.6887 26.705 49 26.705V26.707ZM16.8437 45.4271C17.7656 45.4275 18.6516 45.7842 19.3166 46.4226C19.9816 47.0611 20.3741 47.9318 20.412 48.8529C20.45 49.7739 20.1305 50.674 19.5203 51.365C18.9101 52.056 18.0564 52.4844 17.1377 52.5607L16.8437 52.5729H9.6979C8.77605 52.5725 7.89004 52.2158 7.22506 51.5774C6.56007 50.9389 6.16758 50.0682 6.12962 49.1471C6.09166 48.2261 6.41117 47.326 7.02136 46.635C7.63156 45.944 8.48521 45.5156 9.4039 45.4393L9.6979 45.4271H16.8437ZM88.3021 45.4271C89.2239 45.4275 90.1099 45.7842 90.7749 46.4226C91.4399 47.0611 91.8324 47.9318 91.8703 48.8529C91.9083 49.7739 91.5888 50.674 90.9786 51.365C90.3684 52.056 89.5148 52.4844 88.5961 52.5607L88.3021 52.5729H81.1562C80.2344 52.5725 79.3484 52.2158 78.6834 51.5774C78.0184 50.9389 77.6259 50.0682 77.588 49.1471C77.55 48.2261 77.8695 47.326 78.4797 46.635C79.0899 45.944 79.9435 45.5156 80.8622 45.4393L81.1562 45.4271H88.3021ZM24.1652 19.2488L24.4204 19.4816L29.4735 24.5347C30.1212 25.1839 30.4945 26.0574 30.5161 26.9743C30.5376 27.8911 30.2058 28.7812 29.5893 29.4601C28.9728 30.1391 28.1188 30.555 27.2041 30.6217C26.2894 30.6884 25.3841 30.4009 24.6756 29.8185L24.4204 29.5878L19.3672 24.5347C18.7145 23.8866 18.3368 23.0116 18.313 22.092C18.2891 21.1725 18.6208 20.2791 19.2391 19.598C19.8574 18.9168 20.7145 18.5004 21.6321 18.4354C22.5497 18.3703 23.457 18.6617 24.1652 19.2488V19.2488ZM78.5204 19.4734C79.1492 20.1007 79.5217 20.9396 79.5655 21.8266C79.6093 22.7137 79.3212 23.5852 78.7573 24.2713L78.5245 24.5286L73.4775 29.5858C72.829 30.2349 71.9555 30.6097 71.0382 30.6324C70.1209 30.655 69.23 30.3239 68.5502 29.7076C67.8703 29.0913 67.4537 28.2371 67.3866 27.3219C67.3194 26.4068 67.607 25.5009 68.1896 24.792L68.4183 24.5368L73.4673 19.4795C73.7988 19.1475 74.1925 18.8839 74.6259 18.704C75.0592 18.5241 75.5238 18.4313 75.993 18.4309C76.4623 18.4305 76.927 18.5226 77.3606 18.7018C77.7943 18.881 78.1884 19.1439 78.5204 19.4755V19.4734ZM49 6.125C49.8967 6.12503 50.7605 6.46222 51.4202 7.06964C52.0798 7.67705 52.4869 8.51028 52.5606 9.40392L52.5729 9.69792V16.8438C52.5725 17.7656 52.2158 18.6516 51.5774 19.3166C50.9389 19.9816 50.0682 20.3741 49.1471 20.412C48.226 20.45 47.326 20.1305 46.635 19.5203C45.944 18.9101 45.5156 18.0564 45.4393 17.1378L45.4271 16.8438V9.69792C45.4271 7.72567 47.0277 6.125 49 6.125Z" fill="white"/>
</svg>
