<svg width="98" height="98" viewBox="0 0 98 98" fill="none" xmlns="http://www.w3.org/2000/svg">
<path d="M45.6679 12.25C52.2347 12.2511 58.6812 14.0117 64.3369 17.3488C69.9926 20.6858 74.6508 25.4773 77.827 31.2248C81.0032 36.9724 82.5814 43.466 82.3973 50.0302C82.2132 56.5944 80.2736 62.9894 76.7803 68.5499C73.2869 74.1104 68.3675 78.6333 62.5337 81.6481C56.6998 84.6629 50.1648 86.0595 43.6082 85.6926C37.0517 85.3256 30.7133 83.2086 25.2523 79.5617C19.7913 75.9148 15.4072 70.8712 12.5561 64.9556C12.3502 64.5309 12.2452 64.0643 12.2494 63.5922C12.2536 63.1202 12.3668 62.6555 12.5803 62.2345C12.7938 61.8135 13.1017 61.4475 13.48 61.1652C13.8583 60.8828 14.2968 60.6918 14.7611 60.6069C22.5766 59.192 34.8389 54.8677 39.7389 41.8031C43.1872 32.6156 42.8749 23.3363 41.4722 15.8944C41.3917 15.4608 41.4058 15.015 41.5135 14.5874C41.6212 14.1598 41.82 13.7605 42.0962 13.4168C42.3725 13.0731 42.7197 12.7931 43.1141 12.5959C43.5085 12.3988 43.9409 12.2891 44.3816 12.2745C44.8104 12.25 45.2391 12.25 45.6679 12.25Z" fill="white"/>
</svg>
