<svg width="98" height="98" viewBox="0 0 98 98" fill="none" xmlns="http://www.w3.org/2000/svg">
<path d="M53.0915 32.6952C66.0316 32.6952 73.3694 41.258 74.4392 51.6011H74.7659C76.7433 51.5984 78.7019 51.9853 80.5298 52.7397C82.3576 53.494 84.019 54.6011 85.419 55.9977C86.8189 57.3942 87.9301 59.0529 88.6889 60.8789C89.4477 62.7049 89.8394 64.6626 89.8415 66.64C89.8389 68.6171 89.4468 70.5743 88.6877 72.3998C87.9286 74.2254 86.8174 75.8836 85.4175 77.2797C84.0176 78.6758 82.3564 79.7825 80.5288 80.5366C78.7012 81.2907 76.7429 81.6775 74.7659 81.6748H31.4172C29.4401 81.6775 27.4819 81.2907 25.6542 80.5366C23.8266 79.7825 22.1654 78.6758 20.7655 77.2797C19.3656 75.8836 18.2544 74.2254 17.4953 72.3998C16.7363 70.5743 16.3442 68.6171 16.3415 66.64C16.3437 64.6626 16.7353 62.7049 17.4942 60.8789C18.253 59.0529 19.3641 57.3942 20.7641 55.9977C22.1641 54.6011 23.8254 53.494 25.6533 52.7397C27.4812 51.9853 29.4398 51.5984 31.4172 51.6011H31.7439C32.8178 41.1886 40.1514 32.6952 53.0874 32.6952H53.0915ZM17.836 49.6615C18.1196 50.3458 18.1456 51.1097 17.9091 51.8117C17.6726 52.5137 17.1897 53.1062 16.5498 53.4794L16.1782 53.6632L12.397 55.2312C11.6804 55.5272 10.8781 55.5404 10.152 55.2681C9.42601 54.9957 8.83033 54.4581 8.48521 53.7637C8.14009 53.0693 8.07123 52.2699 8.29252 51.5267C8.51381 50.7835 9.00877 50.152 9.67752 49.7595L10.0532 49.5717L13.8344 48.0077C14.5843 47.6966 15.4272 47.696 16.1776 48.0061C16.928 48.3163 17.5245 48.9117 17.836 49.6615V49.6615ZM44.3246 29.9267L43.6223 30.1636C36.3376 32.7361 31.1191 38.3507 28.861 45.7742L28.5752 46.795L28.3384 47.7668L27.4972 47.9261C25.0543 48.4392 22.7368 49.43 20.678 50.8416C18.8065 47.6248 18.1074 43.859 18.6998 40.1849C19.2921 36.5108 21.1393 33.1554 23.9269 30.6898C26.7145 28.2242 30.2704 26.8007 33.9893 26.6616C37.7083 26.5225 41.3606 27.6763 44.3246 29.9267V29.9267ZM12.005 30.0533L12.4379 30.1962L16.219 31.7642C16.93 32.0623 17.5025 32.6175 17.8221 33.3191C18.1416 34.0207 18.1849 34.817 17.9431 35.5491C17.7013 36.2811 17.1923 36.8951 16.5177 37.2683C15.8431 37.6415 15.0526 37.7466 14.3039 37.5626L13.8834 37.4278L10.1022 35.8598C9.39307 35.5609 8.82247 35.0059 8.50395 34.3054C8.18542 33.6049 8.14231 32.8101 8.38319 32.0792C8.62408 31.3483 9.1313 30.7349 9.80393 30.361C10.4766 29.9872 11.2653 29.8802 12.0132 30.0615L12.005 30.0533ZM27.5829 17.8605L27.7708 18.2321L29.3347 22.0173C29.6265 22.7334 29.6367 23.5333 29.3632 24.2565C29.0897 24.9798 28.5527 25.5728 27.8601 25.9165C27.1675 26.2602 26.3705 26.3292 25.6291 26.1097C24.8877 25.8901 24.2568 25.3982 23.863 24.7327L23.6752 24.3612L22.1113 20.5759C21.8194 19.8599 21.8092 19.0599 22.0827 18.3367C22.3563 17.6135 22.8932 17.0205 23.5859 16.6767C24.2785 16.333 25.0755 16.264 25.8169 16.4836C26.5583 16.7031 27.1892 17.195 27.5829 17.8605V17.8605ZM45.3618 16.5579C46.0397 16.8393 46.5941 17.3548 46.9238 18.0106C47.2536 18.6664 47.3369 19.4188 47.1584 20.1308L47.0155 20.5596L45.4516 24.3448C45.1536 25.0558 44.5983 25.6283 43.8967 25.9479C43.1951 26.2674 42.3988 26.3107 41.6668 26.0689C40.9347 25.8271 40.3208 25.3181 39.9475 24.6435C39.5743 23.9689 39.4692 23.1784 39.6533 22.4297L39.7921 21.9969L41.3601 18.2157C41.514 17.8441 41.7395 17.5064 42.0239 17.222C42.3083 16.9375 42.6459 16.7119 43.0175 16.5579C43.3891 16.404 43.7874 16.3247 44.1897 16.3247C44.5919 16.3247 44.9902 16.404 45.3618 16.5579V16.5579Z" fill="white"/>
</svg>
