<svg width="98" height="98" viewBox="0 0 98 98" fill="none" xmlns="http://www.w3.org/2000/svg">
<path d="M53.9 34.3C65.9785 34.3 72.8287 42.0126 73.8234 51.3226H74.1272C81.8986 51.3226 88.2 57.3839 88.2 64.8613C88.2 72.3387 81.8986 78.4 74.1272 78.4H33.6728C25.9014 78.4 19.6 72.3387 19.6 64.8613C19.6 57.6583 25.4408 51.7734 32.8153 51.3471L33.9766 51.3226C34.9811 41.9489 41.8215 34.3 53.9 34.3ZM28.6307 14.7C31.901 14.8774 35.0828 15.826 37.9162 17.4685C40.2818 18.8297 42.3558 20.6438 44.0197 22.8071C45.6836 24.9705 46.9048 27.4406 47.6133 30.0762C39.1657 31.9382 33.0946 37.6222 30.6152 45.4671L30.3016 46.55L30.0762 47.4663L29.2677 47.6133C24.9971 48.4901 21.1766 50.8553 18.4877 54.2871C15.2128 52.7222 12.405 50.3266 10.3439 47.3389C10.0771 46.9502 9.90296 46.5055 9.83498 46.0389C9.76699 45.5723 9.80695 45.0964 9.95178 44.6477C10.0966 44.199 10.3424 43.7896 10.6704 43.4508C10.9983 43.112 11.3996 42.853 11.8433 42.6937C18.5857 40.2829 22.2166 37.5683 24.2893 33.5993C26.558 29.2726 26.9794 24.6813 25.4751 18.5073C24.9851 16.5032 26.5678 14.5922 28.6307 14.7049V14.7Z" fill="white"/>
</svg>
