<svg width="98" height="98" viewBox="0 0 98 98" fill="none" xmlns="http://www.w3.org/2000/svg">
<path d="M53.9 34.3C65.9785 34.3 72.8287 42.0126 73.8234 51.3226H74.1272C81.8986 51.3226 88.2 57.3839 88.2 64.8613C88.2 72.3387 81.8986 78.4 74.1272 78.4H33.6728C25.9014 78.4 19.6 72.3387 19.6 64.8613C19.6 57.3839 25.9014 51.3226 33.6728 51.3226H33.9766C34.9811 41.9489 41.8215 34.3 53.9 34.3ZM41.1208 19.6C48.2552 19.6 54.4782 23.6572 57.5505 29.6205C56.3394 29.472 55.1202 29.3984 53.9 29.4C42.189 29.4 33.6532 35.8043 30.6054 45.5014L30.3016 46.55L30.0762 47.4663L29.2677 47.6133C26.3086 48.216 23.5447 49.5418 21.2226 51.4724C18.9004 53.4029 17.0923 55.8782 15.9593 58.6775C13.625 57.2553 11.8051 55.1257 10.7642 52.5982C9.7233 50.0707 9.51563 47.2771 10.1714 44.6235C10.8271 41.9699 12.3121 39.5946 14.4105 37.8428C16.5089 36.0911 19.1112 35.0543 21.8393 34.8831L22.9271 34.8586C23.6827 30.5825 25.9205 26.7093 29.2476 23.9189C32.5747 21.1285 36.7785 19.5994 41.1208 19.6V19.6Z" fill="white"/>
</svg>
