<svg width="98" height="98" viewBox="0 0 98 98" fill="none" xmlns="http://www.w3.org/2000/svg">
<path d="M59.3472 71.6748C60.1594 71.6748 60.9384 71.9974 61.5127 72.5717C62.087 73.1461 62.4097 73.925 62.4097 74.7373C62.4097 75.5495 62.087 76.3284 61.5127 76.9028C60.9384 77.4771 60.1594 77.7998 59.3472 77.7998C58.5349 77.7998 57.756 77.4771 57.1817 76.9028C56.6073 76.3284 56.2847 75.5495 56.2847 74.7373C56.2847 73.925 56.6073 73.1461 57.1817 72.5717C57.756 71.9974 58.5349 71.6748 59.3472 71.6748ZM49 16.3333C61.9401 16.3333 69.2778 24.9002 70.3436 35.2392H70.6702C72.6484 35.2359 74.6077 35.6226 76.4363 36.377C78.265 37.1314 79.927 38.2387 81.3274 39.6357C82.7279 41.0328 83.8393 42.6921 84.5981 44.5189C85.357 46.3456 85.7484 48.3041 85.75 50.2822C85.7479 52.2599 85.3561 54.2179 84.597 56.0442C83.8379 57.8705 82.7264 59.5293 81.326 60.9259C79.9256 62.3225 78.2637 63.4295 76.4354 64.1837C74.607 64.9378 72.648 65.3243 70.6702 65.3211H65.3333C65.139 65.9444 64.7504 66.4894 64.2245 66.8763C63.6985 67.2632 63.0626 67.472 62.4097 67.472C61.7567 67.472 61.1208 67.2632 60.5949 66.8763C60.0689 66.4894 59.6804 65.9444 59.486 65.3211H36.701L30.2371 76.0521C29.8488 76.7236 29.2202 77.2227 28.4781 77.4487C27.7361 77.6746 26.936 77.6106 26.2393 77.2695C25.5427 76.9285 25.0014 76.3358 24.7248 75.6111C24.4482 74.8864 24.4569 74.0838 24.7491 73.3652L24.9328 72.9896L29.6287 65.3211H27.3297C25.3516 65.3243 23.3923 64.9377 21.5637 64.1833C19.735 63.4289 18.073 62.3215 16.6726 60.9245C15.2721 59.5275 14.1607 57.8682 13.4019 56.0414C12.643 54.2146 12.2516 52.2562 12.25 50.2781C12.2527 48.301 12.6447 46.3438 13.4038 44.5182C14.1629 42.6927 15.2741 41.0345 16.674 39.6384C18.0739 38.2423 19.7351 37.1356 21.5627 36.3814C23.3903 35.6273 25.3486 35.2406 27.3257 35.2432H27.6523C28.7303 24.8267 36.064 16.3333 49 16.3333ZM47.2768 68.208C47.9184 68.5777 48.4043 69.1674 48.6445 69.8679C48.8848 70.5683 48.8631 71.3321 48.5835 72.0177L48.3957 72.3934L46.1253 76.0521C45.7384 76.727 45.1091 77.2295 44.3653 77.4573C43.6214 77.6851 42.8187 77.6213 42.1201 77.2788C41.4216 76.9363 40.8796 76.3408 40.6042 75.6131C40.3288 74.8855 40.3406 74.0804 40.6373 73.3612L40.8211 72.9896L43.0914 69.3309C43.2923 68.9822 43.56 68.6765 43.8792 68.4313C44.1983 68.1861 44.5627 68.0062 44.9514 67.902C45.3401 67.7977 45.7456 67.771 46.1446 67.8235C46.5436 67.876 46.9283 68.0067 47.2768 68.208V68.208ZM69.5514 68.6123C70.3636 68.6123 71.1426 68.9349 71.7169 69.5092C72.2913 70.0836 72.6139 70.8625 72.6139 71.6748C72.6139 72.487 72.2913 73.2659 71.7169 73.8403C71.1426 74.4146 70.3636 74.7373 69.5514 74.7373C68.7392 74.7373 67.9602 74.4146 67.3859 73.8403C66.8116 73.2659 66.4889 72.487 66.4889 71.6748C66.4889 70.8625 66.8116 70.0836 67.3859 69.5092C67.9602 68.9349 68.7392 68.6123 69.5514 68.6123V68.6123Z" fill="white"/>
</svg>
