<svg width="98" height="98" viewBox="0 0 98 98" fill="none" xmlns="http://www.w3.org/2000/svg">
<path d="M53.0874 24.5C66.0255 24.5 73.3653 33.0648 74.433 43.4058H74.7597C83.0856 43.4058 89.8354 50.1392 89.8354 58.4427C89.8354 66.5828 83.3531 73.2101 75.2579 73.4714L74.6188 73.4796L65.8397 88.0959C65.3635 88.8783 64.605 89.4479 63.7209 89.6872C62.8368 89.9264 61.8945 89.817 61.0888 89.3815C60.283 88.946 59.6753 88.2176 59.3911 87.3469C59.1069 86.4762 59.1679 85.5296 59.5615 84.7026L59.7147 84.4168L66.2827 73.4796H58.2855L49.5063 88.0959C49.0327 88.8835 48.2737 89.4583 47.3871 89.7008C46.5006 89.9433 45.5547 89.8348 44.746 89.3979C43.9374 88.961 43.3283 88.2293 43.0452 87.3548C42.7622 86.4804 42.827 85.5305 43.2262 84.7026L43.3813 84.4168L49.9494 73.4796H41.9522L33.173 88.0959C32.6993 88.8835 31.9403 89.4583 31.0538 89.7008C30.1672 89.9433 29.2213 89.8348 28.4127 89.3979C27.6041 88.961 26.9949 88.2293 26.7119 87.3548C26.4288 86.4804 26.4936 85.5305 26.8928 84.7026L27.048 84.4168L33.616 73.4796H31.4151C23.0892 73.4796 16.3395 66.7482 16.3395 58.4427C16.3395 50.1392 23.0892 43.4058 31.4151 43.4058H31.7418C32.8157 32.9954 40.1494 24.5 53.0874 24.5V24.5ZM15.4534 41.2212C15.8978 41.9905 16.0396 42.8978 15.8513 43.766C15.6629 44.6342 15.1578 45.4011 14.4346 45.9171L14.1447 46.1029L11.4926 47.6341C10.6976 48.0947 9.75584 48.2313 8.86281 48.0156C7.96978 47.8 7.19413 47.2486 6.69697 46.4761C6.1998 45.7035 6.01933 44.7692 6.19302 43.867C6.36672 42.9649 6.88124 42.1643 7.62972 41.6316L7.91963 41.4458L10.5738 39.9146C11.3942 39.441 12.3691 39.3127 13.2841 39.5577C14.1991 39.8027 14.9794 40.4011 15.4534 41.2212V41.2212ZM44.3225 21.7682C36.5622 24.2591 31.0333 30.1207 28.765 37.9423L28.5731 38.6365L28.3363 39.6083L27.4951 39.7655C25.051 40.2802 22.7328 41.2731 20.6739 42.6872C18.7954 39.4701 18.0912 35.7009 18.6812 32.0226C19.2713 28.3442 21.1191 24.9845 23.9096 22.5163C26.7 20.0482 30.2603 18.6245 33.9832 18.4881C37.7061 18.3516 41.361 19.5109 44.3246 21.7682H44.3225ZM11.2394 20.3758L11.5089 20.4881L14.2856 21.7825C15.1264 22.1692 15.7844 22.8671 16.121 23.7292C16.4576 24.5914 16.4466 25.5505 16.0901 26.4046C15.7337 27.2588 15.0598 27.9413 14.2102 28.3084C13.3606 28.6756 12.4017 28.6987 11.5354 28.373L11.2659 28.2587L8.48926 26.9643C7.65484 26.5736 7.00359 25.8757 6.6715 25.0163C6.33941 24.1569 6.35214 23.2024 6.70705 22.3522C7.06196 21.5019 7.73159 20.8216 8.57614 20.4534C9.42068 20.0851 10.3748 20.0573 11.2394 20.3758ZM50.2556 8.61175C50.9904 9.12592 51.5049 9.89761 51.6971 10.7736C51.8892 11.6495 51.7449 12.5657 51.2928 13.3402L51.1335 13.5873L49.3777 16.0965C48.8506 16.8567 48.0492 17.3829 47.1421 17.5643C46.2349 17.7457 45.2928 17.5682 44.5139 17.0691C43.735 16.57 43.18 15.7883 42.9657 14.8883C42.7514 13.9884 42.8946 13.0404 43.365 12.2439L43.5243 11.9989L45.2801 9.48762C45.5492 9.10303 45.8914 8.77523 46.2872 8.52295C46.6831 8.27067 47.1247 8.09886 47.587 8.01733C48.0492 7.9358 48.523 7.94615 48.9813 8.04779C49.4395 8.14944 49.8732 8.34038 50.2577 8.60971L50.2556 8.61175ZM29.2448 7.75425L29.3775 8.07275L30.4249 10.9515C30.7391 11.8141 30.7092 12.7646 30.3414 13.6058C29.9736 14.4469 29.2962 15.1142 28.4495 15.4693C27.6029 15.8243 26.6521 15.8398 25.7943 15.5126C24.9365 15.1854 24.2376 14.5406 23.8426 13.7118L23.7099 13.3954L22.6625 10.5166C22.3483 9.654 22.3782 8.70353 22.746 7.86236C23.1138 7.02119 23.7913 6.35387 24.6379 5.99883C25.4845 5.64379 26.4353 5.62827 27.2931 5.9555C28.1509 6.28272 28.8498 6.92757 29.2448 7.75629V7.75425Z" fill="white"/>
</svg>
