<svg width="98" height="98" viewBox="0 0 98 98" fill="none" xmlns="http://www.w3.org/2000/svg">
<path d="M53.9735 29.4882C66.052 29.4882 72.9022 37.1959 73.8969 46.5108H74.2007C81.9721 46.5108 88.2735 52.5721 88.2735 60.0495C88.2735 67.522 81.9721 73.5882 74.2007 73.5882L70.6923 73.5833L70.6433 73.7058L63.357 86.9554C63.0689 87.5011 62.5856 87.918 62.0035 88.1227C61.4215 88.3275 60.7836 88.3052 60.2173 88.0601C59.651 87.815 59.198 87.3653 58.9489 86.8008C58.6998 86.2362 58.6729 85.5985 58.8735 85.015L59.0499 84.6083L65.1259 73.5833H56.0462L55.9972 73.7058L48.706 86.9554C48.4104 87.4869 47.9278 87.8896 47.3518 88.0849C46.7759 88.2803 46.1478 88.2545 45.5899 88.0125C45.0319 87.7705 44.5839 87.3296 44.333 86.7756C44.0821 86.2215 44.0462 85.594 44.2323 85.015L44.4038 84.6083L50.4798 73.5833H41.3168L34.0305 86.9554C33.7555 87.4589 33.3126 87.8499 32.779 88.0603C32.2453 88.2707 31.6547 88.2872 31.1101 88.1069L30.7083 87.9305C30.205 87.6565 29.8137 87.2147 29.6024 86.682C29.3911 86.1494 29.3733 85.5595 29.5519 85.015L29.7283 84.6083L35.7308 73.5833H33.7463C25.9749 73.5833 19.6735 67.5269 19.6735 60.0495C19.6735 52.8465 25.5143 46.9616 32.8888 46.5353L34.0501 46.5108C35.0546 37.1371 41.8999 29.4882 53.9735 29.4882V29.4882ZM28.7042 9.8882C31.9744 10.0656 35.1563 11.0142 37.9897 12.6567C40.3547 14.0173 42.4285 15.8307 44.0924 17.9931C45.7562 20.1556 46.9777 22.6248 47.6868 25.2595C39.2392 27.1215 33.1681 32.8055 30.6936 40.6553L30.3751 41.7333L30.1497 42.6545L29.3412 42.8015C25.0705 43.6783 21.2501 46.0435 18.5612 49.4753C15.286 47.9108 12.4781 45.5151 10.4174 42.5271C10.1496 42.1383 9.97467 41.6931 9.90616 41.226C9.83765 40.7589 9.87737 40.2822 10.0223 39.8329C10.1671 39.3836 10.4133 38.9735 10.7418 38.6344C11.0703 38.2953 11.4723 38.0361 11.9168 37.877C18.6592 35.4662 22.2901 32.7516 24.3628 28.7875C26.6364 24.4559 27.0529 19.8695 25.5486 13.6955C25.0586 11.6865 26.6413 9.7755 28.7042 9.8931V9.8882Z" fill="white"/>
</svg>
