<svg width="98" height="98" viewBox="0 0 98 98" fill="none" xmlns="http://www.w3.org/2000/svg">
<path d="M56.8988 59.437C57.3815 59.8718 57.6717 60.4804 57.7057 61.1292C57.7397 61.7779 57.5147 62.4136 57.0801 62.8964L52.0478 68.6147H61.25C61.7101 68.6161 62.1606 68.747 62.5498 68.9926C62.939 69.2381 63.2512 69.5882 63.4506 70.0029C63.65 70.4176 63.7286 70.8801 63.6774 71.3374C63.6262 71.7947 63.4472 72.2283 63.161 72.5886L51.156 87.2886C50.7512 87.7974 50.1608 88.1245 49.5148 88.198C48.8688 88.2715 48.2201 88.0854 47.7113 87.6806C47.2025 87.2758 46.8754 86.6855 46.8019 86.0395C46.7284 85.3934 46.9145 84.7447 47.3193 84.2359L56.1638 73.5147H46.55C46.0767 73.5146 45.6136 73.3775 45.2166 73.1198C44.8196 72.8621 44.5057 72.495 44.3129 72.0627C44.1201 71.6305 44.0566 71.1517 44.1301 70.6841C44.2037 70.2166 44.411 69.7803 44.7272 69.4281L53.4345 59.6183C53.6498 59.3786 53.9104 59.1837 54.2011 59.0448C54.4919 58.9059 54.8072 58.8258 55.129 58.8089C55.4508 58.7921 55.7728 58.8389 56.0765 58.9467C56.3802 59.0545 56.6596 59.2211 56.8988 59.437V59.437ZM53.9 29.4C65.9785 29.4 72.8287 37.1126 73.8234 46.4226H74.1272C81.8986 46.4226 88.2 52.4839 88.2 59.9613C88.2 67.4387 81.8986 73.5 74.1272 73.5H68.1982C69.6731 69.3546 67.0663 64.6163 62.573 63.8274L61.9507 63.7441C62.3826 62.1482 62.2637 60.4532 61.6134 58.9331C60.963 57.413 59.8192 56.1566 58.3666 55.3669C56.914 54.5771 55.2376 54.3002 53.6083 54.5809C51.9789 54.8615 50.4917 55.6833 49.3871 56.9135L41.0865 66.15C40.1934 67.1239 39.5842 68.3239 39.325 69.6197C39.0659 70.9155 39.1667 72.2575 39.6165 73.5H33.6728C25.9014 73.5 19.6 67.4387 19.6 59.9613C19.6 52.4839 25.9014 46.4226 33.6728 46.4226H33.9766C34.9811 37.0489 41.8215 29.4 53.9 29.4ZM41.1208 14.7C48.2552 14.7 54.4782 18.7572 57.5505 24.7205C56.3393 24.572 55.1202 24.4984 53.9 24.5C42.189 24.5 33.6532 30.9043 30.6054 40.6014L30.3016 41.65L30.0762 42.5663L29.2677 42.7133C26.3086 43.316 23.5447 44.6418 21.2226 46.5724C18.9004 48.5029 17.0922 50.9783 15.9593 53.7775C13.625 52.3553 11.8051 50.2257 10.7642 47.6982C9.72328 45.1707 9.51561 42.3771 10.1714 39.7235C10.8271 37.0699 12.3121 34.6946 14.4105 32.9429C16.5089 31.1911 19.1112 30.1543 21.8393 29.9831L22.9271 29.9586C23.6827 25.6825 25.9205 21.8093 29.2476 19.0189C32.5747 16.2285 36.7785 14.6994 41.1208 14.7V14.7Z" fill="white"/>
</svg>
