<svg width="98" height="98" viewBox="0 0 98 98" fill="none" xmlns="http://www.w3.org/2000/svg">
<path d="M79.1077 62.1105L69.075 60.0566L75.1305 58.4396C75.6485 58.3007 76.1341 58.0612 76.5595 57.7346C76.985 57.4081 77.3419 57.0009 77.61 56.5365C77.878 56.072 78.052 55.5592 78.1219 55.0275C78.1918 54.4958 78.1563 53.9555 78.0175 53.4375C77.8786 52.9195 77.639 52.4339 77.3125 52.0085C76.9859 51.5831 76.5788 51.2262 76.1143 50.9581C75.6498 50.69 75.1371 50.5161 74.6054 50.4461C74.0736 50.3762 73.5334 50.4117 73.0154 50.5506L66.8577 52.1962C67.0088 51.2529 67.1476 50.3015 67.1476 49.3134C67.1476 48.3252 67.0088 47.3697 66.8577 46.4264L73.0235 48.0761L74.0852 48.2149C75.0758 48.2144 76.0324 47.8538 76.7768 47.2003C77.5212 46.5468 78.0027 45.645 78.1316 44.6629C78.2605 43.6808 78.028 42.6853 77.4774 41.8618C76.9267 41.0384 76.0956 40.4432 75.1387 40.1871L69.0831 38.566L79.1077 36.5162C79.7757 36.3793 80.4016 36.0857 80.9339 35.6596C81.4662 35.2334 81.8896 34.6868 82.1693 34.0649C82.4489 33.443 82.5768 32.7636 82.5423 32.0826C82.5079 31.4015 82.3121 30.7385 81.9712 30.1479C81.6302 29.5574 81.1539 29.0564 80.5813 28.6861C80.0087 28.3157 79.3564 28.0868 78.678 28.018C77.9996 27.9493 77.3145 28.0427 76.6793 28.2906C76.0441 28.5385 75.4769 28.9338 75.0244 29.4439L68.2338 37.096L69.859 31.0568C69.9984 30.5388 70.0344 29.9984 69.965 29.4665C69.8956 28.9345 69.722 28.4215 69.4544 27.9566C68.9137 27.0178 68.0223 26.3322 66.9761 26.0506C65.93 25.769 64.8148 25.9146 63.876 26.4552C62.9371 26.9958 62.2515 27.8873 61.97 28.9334L60.308 35.1279C58.8148 33.8938 57.1346 32.9055 55.3305 32.2001L59.8303 27.7003C60.2094 27.3212 60.5101 26.8711 60.7153 26.3757C60.9205 25.8804 61.0261 25.3495 61.0261 24.8134C61.0261 24.2772 60.9205 23.7463 60.7153 23.251C60.5101 22.7556 60.2094 22.3056 59.8303 21.9264C59.4512 21.5473 59.0011 21.2466 58.5058 21.0414C58.0104 20.8362 57.4795 20.7306 56.9434 20.7306C56.4072 20.7306 55.8763 20.8362 55.381 21.0414C54.8856 21.2466 54.4356 21.5473 54.0565 21.9264L49.622 26.3609L52.86 16.6467C53.0731 16.0008 53.1299 15.3135 53.0257 14.6413C52.9216 13.9692 52.6595 13.3313 52.2609 12.7802C51.8623 12.229 51.3387 11.7803 50.733 11.4708C50.1273 11.1614 49.4569 11 48.7767 11C48.0965 11 47.4261 11.1614 46.8204 11.4708C46.2147 11.7803 45.6911 12.229 45.2925 12.7802C44.8939 13.3313 44.6318 13.9692 44.5277 14.6413C44.4235 15.3135 44.4803 16.0008 44.6934 16.6467L47.9315 26.3609L43.497 21.9264C42.7313 21.1608 41.6928 20.7306 40.61 20.7306C39.5272 20.7306 38.4888 21.1608 37.7231 21.9264C36.9575 22.6921 36.5273 23.7305 36.5273 24.8134C36.5273 25.8962 36.9575 26.9346 37.7231 27.7003L42.223 32.2001C40.4201 32.9081 38.7402 33.8961 37.2454 35.1279L35.5916 28.9416C35.4606 28.4157 35.2261 27.9212 34.9019 27.4868C34.5778 27.0525 34.1704 26.687 33.7035 26.4117C33.2367 26.1364 32.7197 25.9568 32.1827 25.8834C31.6457 25.81 31.0995 25.8442 30.5758 25.984C30.0522 26.1239 29.5617 26.3666 29.1328 26.698C28.7039 27.0294 28.3453 27.4428 28.0779 27.9142C27.8105 28.3856 27.6395 28.9055 27.5751 29.4437C27.5107 29.9818 27.554 30.5274 27.7026 31.0486L29.3196 37.1124L22.5331 29.4479C22.0011 28.8534 21.3148 28.418 20.5502 28.19C19.7857 27.9619 18.9729 27.9503 18.2022 28.1563C17.4315 28.3623 16.7329 28.7779 16.1841 29.357C15.6353 29.936 15.2577 30.6558 15.0933 31.4365C14.6155 33.764 16.1182 36.0425 18.4498 36.5203L28.4703 38.5742L22.427 40.1912C21.4701 40.4473 20.6389 41.0425 20.0883 41.8659C19.5377 42.6893 19.3052 43.6849 19.434 44.667C19.5629 45.6491 20.0444 46.5509 20.7889 47.2044C21.5333 47.8579 22.4899 48.2185 23.4805 48.219L24.5421 48.0802L30.6998 46.4305C30.5197 47.3814 30.42 48.3457 30.4017 49.3134C30.4017 50.3015 30.5405 51.2529 30.6916 52.2003L24.534 50.5506C24.016 50.4117 23.4757 50.3762 22.944 50.4461C22.4122 50.5161 21.8995 50.69 21.435 50.9581C20.9705 51.2262 20.5634 51.5831 20.2368 52.0085C19.9103 52.4339 19.6708 52.9195 19.5319 53.4375C19.393 53.9555 19.3575 54.4958 19.4274 55.0275C19.4973 55.5592 19.6713 56.072 19.9394 56.5365C20.2074 57.0009 20.5644 57.4081 20.9898 57.7346C21.4152 58.0612 21.9008 58.3007 22.4188 58.4396L28.4744 60.0607L18.4498 62.1105C17.6651 62.2681 16.94 62.6418 16.3563 63.1895C15.7726 63.7372 15.3536 64.437 15.1464 65.2101C14.9392 65.9832 14.9522 66.7989 15.1837 67.565C15.4153 68.3312 15.8564 69.0174 16.4571 69.5463C16.8797 69.9219 17.3722 70.2105 17.9064 70.3955C18.4406 70.5806 19.0061 70.6585 19.5705 70.6247C20.1349 70.591 20.687 70.4462 21.1954 70.1988C21.7038 69.9514 22.1583 69.6062 22.5331 69.1828L29.3319 61.5143L27.7067 67.574C27.5678 68.092 27.5322 68.6323 27.6021 69.1641C27.672 69.6958 27.8459 70.2086 28.114 70.6731C28.3821 71.1376 28.7391 71.5447 29.1645 71.8712C29.59 72.1978 30.0756 72.4373 30.5936 72.5761L31.6553 72.7149C32.5534 72.7141 33.4262 72.4173 34.1386 71.8703C34.851 71.3233 35.3631 70.5567 35.5957 69.6892L37.2535 63.5029C38.748 64.7198 40.4018 65.7243 42.2352 66.4266L37.7272 70.9264C37.3481 71.3055 37.0474 71.7556 36.8422 72.251C36.637 72.7463 36.5314 73.2772 36.5314 73.8133C36.5314 74.3495 36.637 74.8804 36.8422 75.3757C37.0474 75.8711 37.3481 76.3212 37.7272 76.7003C38.4929 77.4659 39.5313 77.8961 40.6141 77.8961C41.1503 77.8961 41.6812 77.7905 42.1765 77.5853C42.6718 77.3801 43.1219 77.0794 43.501 76.7003L46.3839 73.8133H47.4129L44.6934 81.9759C44.4803 82.6219 44.4235 83.3091 44.5277 83.9813C44.6318 84.6534 44.8939 85.2913 45.2925 85.8424C45.6911 86.3936 46.2147 86.8423 46.8204 87.1518C47.4261 87.4613 48.0965 87.6226 48.7767 87.6226C49.4569 87.6226 50.1273 87.4613 50.733 87.1518C51.3387 86.8423 51.8623 86.3936 52.2609 85.8424C52.6595 85.2913 52.9216 84.6534 53.0257 83.9813C53.1299 83.3091 53.0731 82.6219 52.86 81.9759L50.1405 73.8133H51.1695L54.0565 76.7003C54.8221 77.4659 55.8606 77.8961 56.9434 77.8961C58.0262 77.8961 59.0646 77.4659 59.8303 76.7003C60.5959 75.9346 61.0261 74.8962 61.0261 73.8133C61.0261 72.7305 60.5959 71.6921 59.8303 70.9264L55.3305 66.4225C57.1366 65.7187 58.8184 64.7303 60.3121 63.4948L61.97 69.6892C62.2026 70.5567 62.7147 71.3233 63.4271 71.8703C64.1394 72.4173 65.0122 72.7141 65.9104 72.7149L66.972 72.5761C67.4901 72.4373 67.9757 72.1978 68.4011 71.8712C68.8266 71.5447 69.1835 71.1376 69.4516 70.6731C69.7197 70.2086 69.8937 69.6958 69.9636 69.1641C70.0335 68.6323 69.9979 68.092 69.859 67.574L68.2379 61.5307L75.0244 69.1828C75.4769 69.6929 76.0441 70.0882 76.6793 70.3361C77.3145 70.584 77.9996 70.6774 78.678 70.6087C79.3564 70.5399 80.0087 70.311 80.5813 69.9406C81.1539 69.5703 81.6302 69.0693 81.9712 68.4788C82.3121 67.8882 82.5079 67.2252 82.5423 66.5441C82.5768 65.8631 82.4489 65.1837 82.1693 64.5618C81.8896 63.9399 81.4662 63.3933 80.9339 62.9672C80.4016 62.541 79.7757 62.2474 79.1077 62.1105V62.1105ZM48.7767 59.5217C43.1458 59.5217 38.5684 54.9443 38.5684 49.3134C38.5684 43.6824 43.1458 39.105 48.7767 39.105C54.4076 39.105 58.985 43.6824 58.985 49.3134C58.985 54.9443 54.4076 59.5217 48.7767 59.5217Z" fill="white"/>
</svg>
