<svg width="98" height="98" viewBox="0 0 98 98" fill="none" xmlns="http://www.w3.org/2000/svg">
<path d="M85.75 20.4167H12.25C11.167 20.4167 10.1284 19.9865 9.36265 19.2207C8.59687 18.4549 8.16667 17.4163 8.16667 16.3333C8.16667 15.2504 8.59687 14.2118 9.36265 13.446C10.1284 12.6802 11.167 12.25 12.25 12.25H85.75C86.833 12.25 87.8716 12.6802 88.6374 13.446C89.4031 14.2118 89.8333 15.2504 89.8333 16.3333C89.8333 17.4163 89.4031 18.4549 88.6374 19.2207C87.8716 19.9865 86.833 20.4167 85.75 20.4167ZM81.6667 32.6667C81.6667 31.5837 81.2365 30.5451 80.4707 29.7793C79.7049 29.0135 78.6663 28.5833 77.5833 28.5833H20.4167C19.3337 28.5833 18.2951 29.0135 17.5293 29.7793C16.7635 30.5451 16.3333 31.5837 16.3333 32.6667C16.3333 33.7496 16.7635 34.7882 17.5293 35.554C18.2951 36.3198 19.3337 36.75 20.4167 36.75H77.5833C78.6663 36.75 79.7049 36.3198 80.4707 35.554C81.2365 34.7882 81.6667 33.7496 81.6667 32.6667V32.6667ZM85.75 49C85.75 47.917 85.3198 46.8784 84.554 46.1126C83.7883 45.3469 82.7496 44.9167 81.6667 44.9167H40.8333C39.7504 44.9167 38.7118 45.3469 37.946 46.1126C37.1802 46.8784 36.75 47.917 36.75 49C36.75 50.083 37.1802 51.1216 37.946 51.8874C38.7118 52.6531 39.7504 53.0833 40.8333 53.0833H81.6667C82.7496 53.0833 83.7883 52.6531 84.554 51.8874C85.3198 51.1216 85.75 50.083 85.75 49ZM65.3333 65.3333C65.3333 64.2504 64.9031 63.2118 64.1374 62.446C63.3716 61.6802 62.333 61.25 61.25 61.25H36.75C35.667 61.25 34.6284 61.6802 33.8627 62.446C33.0969 63.2118 32.6667 64.2504 32.6667 65.3333C32.6667 66.4163 33.0969 67.4549 33.8627 68.2207C34.6284 68.9865 35.667 69.4167 36.75 69.4167H61.25C62.333 69.4167 63.3716 68.9865 64.1374 68.2207C64.9031 67.4549 65.3333 66.4163 65.3333 65.3333ZM53.0833 81.6667C53.0833 80.5837 52.6531 79.5451 51.8874 78.7793C51.1216 78.0135 50.083 77.5833 49 77.5833H40.8333C39.7504 77.5833 38.7118 78.0135 37.946 78.7793C37.1802 79.5451 36.75 80.5837 36.75 81.6667C36.75 82.7496 37.1802 83.7883 37.946 84.554C38.7118 85.3198 39.7504 85.75 40.8333 85.75H49C50.083 85.75 51.1216 85.3198 51.8874 84.554C52.6531 83.7883 53.0833 82.7496 53.0833 81.6667Z" fill="white"/>
</svg>
