<svg width="16" height="16" viewBox="0 0 16 16" fill="none" xmlns="http://www.w3.org/2000/svg">
<path d="M8.00003 10.1334C9.17824 10.1334 10.1334 9.17824 10.1334 8.00003C10.1334 6.82182 9.17824 5.8667 8.00003 5.8667C6.82182 5.8667 5.8667 6.82182 5.8667 8.00003C5.8667 9.17824 6.82182 10.1334 8.00003 10.1334Z" fill="white"/>
<path d="M5.99998 1.33331L4.77998 2.66665H2.66665C1.93331 2.66665 1.33331 3.26665 1.33331 3.99998V12C1.33331 12.7333 1.93331 13.3333 2.66665 13.3333H13.3333C14.0666 13.3333 14.6666 12.7333 14.6666 12V3.99998C14.6666 3.26665 14.0666 2.66665 13.3333 2.66665H11.22L9.99998 1.33331H5.99998ZM7.99998 11.3333C6.15998 11.3333 4.66665 9.83998 4.66665 7.99998C4.66665 6.15998 6.15998 4.66665 7.99998 4.66665C9.83998 4.66665 11.3333 6.15998 11.3333 7.99998C11.3333 9.83998 9.83998 11.3333 7.99998 11.3333Z" fill="white"/>
</svg>
