<svg width="17" height="16" viewBox="0 0 17 16" fill="none" xmlns="http://www.w3.org/2000/svg">
<path d="M12.5608 6.9965L9.24625 1.7185C9.19816 1.65101 9.13464 1.59598 9.06097 1.55802C8.9873 1.52005 8.90563 1.50024 8.82275 1.50024C8.73988 1.50024 8.6582 1.52005 8.58454 1.55802C8.51087 1.59598 8.44734 1.65101 8.39925 1.7185L5.06975 7.0215C4.6072 7.76763 4.34954 8.62253 4.32275 9.5C4.32275 10.6935 4.79686 11.8381 5.64077 12.682C6.48469 13.5259 7.62928 14 8.82275 14C10.0162 14 11.1608 13.5259 12.0047 12.682C12.8486 11.8381 13.3228 10.6935 13.3228 9.5C13.294 8.6129 13.0311 7.74919 12.5608 6.9965ZM8.82275 13C7.89486 12.9988 7.00531 12.6297 6.3492 11.9736C5.69308 11.3174 5.32394 10.4279 5.32275 9.5C5.34933 8.8008 5.55936 8.12088 5.93175 7.5285L6.39925 6.7835L11.4363 11.8205C11.1091 12.1911 10.7069 12.488 10.2564 12.6915C9.80578 12.8949 9.31712 13.0002 8.82275 13.0005V13Z" fill="white"/>
</svg>
