<svg width="17" height="16" viewBox="0 0 17 16" fill="none" xmlns="http://www.w3.org/2000/svg">
<path d="M9.42118 5.79998C9.42118 5.64085 9.35797 5.48824 9.24544 5.37572C9.13292 5.2632 8.98031 5.19998 8.82118 5.19998C8.66205 5.19998 8.50944 5.2632 8.39692 5.37572C8.28439 5.48824 8.22118 5.64085 8.22118 5.79998L8.22278 9.71598C7.87857 9.85522 7.5935 10.1098 7.41643 10.4362C7.23936 10.7626 7.18132 11.1404 7.25224 11.5048C7.32317 11.8693 7.51865 12.1978 7.80519 12.4339C8.09172 12.6701 8.45147 12.7992 8.82278 12.7992C9.19409 12.7992 9.55384 12.6701 9.84037 12.4339C10.1269 12.1978 10.3224 11.8693 10.3933 11.5048C10.4642 11.1404 10.4062 10.7626 10.2291 10.4362C10.0521 10.1098 9.76699 9.85522 9.42278 9.71598L9.42118 5.79998Z" fill="white"/>
<path d="M6.02275 4.39999V4.3984C6.03516 3.66451 6.33541 2.96488 6.85878 2.45028C7.38216 1.93568 8.08677 1.64731 8.82075 1.64731C9.55474 1.64731 10.2593 1.93568 10.7827 2.45028C11.3061 2.96488 11.6063 3.66451 11.6188 4.3984V8.9328C12.0471 9.46109 12.317 10.0999 12.3972 10.7753C12.4774 11.4506 12.3647 12.1349 12.0721 12.7489C11.7795 13.3628 11.3189 13.8813 10.7438 14.2443C10.1687 14.6073 9.50247 14.8 8.82235 14.8C8.14224 14.8 7.47604 14.6073 6.9009 14.2443C6.32576 13.8813 5.86521 13.3628 5.57259 12.7489C5.27998 12.1349 5.16726 11.4506 5.24749 10.7753C5.32773 10.0999 5.59763 9.46109 6.02595 8.9328C6.02595 7.5432 6.01955 5.7488 6.01955 4.39999H6.02275ZM7.22275 4.3984C7.21875 6.0624 7.22595 7.72799 7.22595 9.3928L7.06595 9.56559C6.74766 9.90773 6.53618 10.3354 6.45746 10.796C6.37873 11.2566 6.43619 11.7302 6.62278 12.1586C6.80937 12.587 7.11698 12.9517 7.50785 13.2078C7.89872 13.4639 8.35585 13.6003 8.82315 13.6003C9.29045 13.6003 9.74759 13.4639 10.1385 13.2078C10.5293 12.9517 10.8369 12.587 11.0235 12.1586C11.2101 11.7302 11.2676 11.2566 11.1889 10.796C11.1101 10.3354 10.8986 9.90773 10.5804 9.56559L10.4196 9.3928V4.3984C10.4196 3.97447 10.2512 3.56791 9.95139 3.26816C9.65163 2.9684 9.24508 2.79999 8.82115 2.79999C8.39723 2.79999 7.99067 2.9684 7.69091 3.26816C7.39116 3.56791 7.22275 3.97447 7.22275 4.3984Z" fill="white"/>
</svg>
