<svg width="17" height="16" viewBox="0 0 17 16" fill="none" xmlns="http://www.w3.org/2000/svg">
<path d="M13.3214 6.32999C13.8809 6.33693 14.416 6.55998 14.8148 6.95247C15.2136 7.34496 15.4451 7.87646 15.461 8.43577C15.4768 8.99508 15.2757 9.53884 14.8998 9.95328C14.5239 10.3677 14.0023 10.6207 13.4441 10.6593L13.3107 10.6627L13.2334 10.6673H12.7087C12.7821 10.874 12.8221 11.0973 12.8221 11.3293C12.8221 12.4393 11.9807 13.3333 10.8714 13.3333C10.0047 13.3333 9.38139 12.9147 9.07939 12.2493C9.00874 12.0944 9.00005 11.9183 9.05511 11.7572C9.11016 11.596 9.22478 11.4621 9.37547 11.3828C9.52615 11.3035 9.70147 11.2848 9.86546 11.3307C10.0295 11.3765 10.1697 11.4834 10.2574 11.6293L10.3227 11.7547C10.4161 11.916 10.5714 12 10.8714 12C11.2247 12 11.4881 11.72 11.4881 11.3293C11.4881 10.9893 11.2261 10.7053 10.8854 10.6673H2.82273C2.65281 10.6671 2.48937 10.6021 2.36582 10.4854C2.24226 10.3688 2.1679 10.2094 2.15795 10.0397C2.14799 9.8701 2.20318 9.70307 2.31224 9.57277C2.4213 9.44246 2.576 9.35872 2.74473 9.33866L2.82273 9.33399H10.7287L10.8067 9.32999C10.8487 9.32999 10.8907 9.33132 10.9327 9.33332L13.2407 9.33466L13.2807 9.33066L13.3207 9.32999L13.4067 9.32532C13.5509 9.31013 13.6887 9.25757 13.8064 9.17284C13.924 9.0881 14.0176 8.97412 14.0777 8.84217C14.1379 8.71022 14.1625 8.56486 14.1493 8.42045C14.136 8.27605 14.0853 8.1376 14.0022 8.01879C13.919 7.89998 13.8063 7.80492 13.6752 7.74301C13.5441 7.6811 13.3991 7.65448 13.2545 7.66577C13.1099 7.67707 12.9708 7.7259 12.8509 7.80743C12.731 7.88896 12.6344 8.00037 12.5707 8.13066L12.5061 8.28132C12.4285 8.43166 12.2966 8.54688 12.1372 8.60362C11.9779 8.66036 11.8029 8.65439 11.6477 8.58691C11.4926 8.51943 11.3689 8.39549 11.3017 8.2402C11.2346 8.08492 11.229 7.90992 11.2861 7.75066C11.4392 7.33402 11.7164 6.9744 12.0804 6.72035C12.4444 6.46629 12.8775 6.33004 13.3214 6.32999ZM8.65606 7.99999H2.82273C2.65281 7.9998 2.48937 7.93474 2.36582 7.81809C2.24226 7.70144 2.1679 7.54202 2.15795 7.37239C2.14799 7.20276 2.20318 7.03574 2.31224 6.90543C2.4213 6.77513 2.576 6.69139 2.74473 6.67132L2.82273 6.66666H8.65606C8.95273 6.66666 9.24274 6.57868 9.48942 6.41386C9.73609 6.24904 9.92835 6.01477 10.0419 5.74068C10.1554 5.46659 10.1851 5.16499 10.1272 4.87402C10.0694 4.58305 9.9265 4.31577 9.71672 4.106C9.50694 3.89622 9.23967 3.75336 8.9487 3.69548C8.65772 3.6376 8.35612 3.6673 8.08204 3.78084C7.80795 3.89437 7.57368 4.08663 7.40886 4.3333C7.24403 4.57997 7.15606 4.86998 7.15606 5.16666C7.15606 5.34347 7.08582 5.51304 6.9608 5.63806C6.83577 5.76308 6.66621 5.83332 6.48939 5.83332C6.31258 5.83332 6.14301 5.76308 6.01799 5.63806C5.89297 5.51304 5.82273 5.34347 5.82273 5.16666C5.82279 4.61293 5.98509 4.07136 6.28959 3.60888C6.59409 3.1464 7.02743 2.78327 7.53605 2.56439C8.04467 2.3455 8.60629 2.28045 9.15148 2.37727C9.69667 2.47409 10.2015 2.72854 10.6037 3.10917C11.0059 3.4898 11.2877 3.97993 11.4143 4.51898C11.5409 5.05803 11.5068 5.62237 11.3162 6.14225C11.1256 6.66213 10.7869 7.11477 10.3418 7.44423C9.89678 7.77368 9.36494 7.9655 8.81206 7.99599L8.65606 7.99999H2.82273H8.65606Z" fill="white"/>
</svg>
